<?xml version="1.0" encoding="UTF-8" standalone="no"?>
<svg
   version="1.1"
   viewBox="0 0 623.91235 956.86224"
   id="svg131"
   sodipodi:docname="smartstockit-logo-primary.svg"
   inkscape:version="1.3 (0e150ed6c4, 2023-07-21)"
   width="623.91235"
   height="956.86224"
   xmlns:inkscape="http://www.inkscape.org/namespaces/inkscape"
   xmlns:sodipodi="http://sodipodi.sourceforge.net/DTD/sodipodi-0.dtd"
   xmlns:xlink="http://www.w3.org/1999/xlink"
   xmlns="http://www.w3.org/2000/svg"
   xmlns:svg="http://www.w3.org/2000/svg">
  <defs
     id="defs131">
    <linearGradient
       id="linearGradient140"
       inkscape:collect="always">
      <stop
         style="stop-color:#840d25;stop-opacity:1;"
         offset="0"
         id="stop140" />
      <stop
         style="stop-color:#840d25;stop-opacity:0.58122742;"
         offset="1"
         id="stop141" />
    </linearGradient>
    <linearGradient
       id="linearGradient138"
       inkscape:collect="always">
      <stop
         style="stop-color:#d4163c;stop-opacity:1;"
         offset="0"
         id="stop138" />
      <stop
         style="stop-color:#840d25;stop-opacity:1;"
         offset="1"
         id="stop139" />
    </linearGradient>
    <linearGradient
       inkscape:collect="always"
       xlink:href="#linearGradient138"
       id="linearGradient139"
       x1="434.84589"
       y1="449.45285"
       x2="529.17267"
       y2="522.90997"
       gradientUnits="userSpaceOnUse" />
    <linearGradient
       inkscape:collect="always"
       xlink:href="#linearGradient140"
       id="linearGradient141"
       x1="580.89764"
       y1="439.12253"
       x2="616.44891"
       y2="516.28339"
       gradientUnits="userSpaceOnUse" />
  </defs>
  <sodipodi:namedview
     id="namedview131"
     pagecolor="#505050"
     bordercolor="#eeeeee"
     borderopacity="1"
     inkscape:showpageshadow="0"
     inkscape:pageopacity="0"
     inkscape:pagecheckerboard="0"
     inkscape:deskcolor="#505050"
     showgrid="false"
     inkscape:zoom="0.80999635"
     inkscape:cx="164.81556"
     inkscape:cy="499.38497"
     inkscape:window-width="3440"
     inkscape:window-height="1369"
     inkscape:window-x="-8"
     inkscape:window-y="-8"
     inkscape:window-maximized="1"
     inkscape:current-layer="svg131" />
  <g
     id="g2"
     transform="matrix(2.2725223,0,0,2.2725223,-889.53976,-687.63313)">
    <path
       fill="#ff5f59"
       d="m 555.18,314.49 17.51,9.87 c 0.85625,0.48478 0.81585,1.73168 -0.07,2.16 -2.77882,1.31708 -33.78117,18.668 -41.27,22.75 -1.78,0.98 -3.32,0.99 -5.27,1.06 l -30.82,-16.92 c -4.5,-1.97333 -8.67333,-4.73333 -12.52,-8.28 9.55333,-5.66667 19.15333,-11.16333 28.8,-16.49 6.00667,-3.31333 10.43,-5.23333 13.27,-5.76 10.74,-1.97 21.55,6.41 30.37,11.61 z"
       id="path103"
       style="fill:#ff3c4a;fill-opacity:1"
       sodipodi:nodetypes="cccccccccc" />
    <path
       fill="#ff3c4a"
       d="m 641.19,368.13 q -0.1,0.73 -0.34,1.1 -0.31,0.51 -0.65,0.01 -4.02,-5.99 -10.19,-2.46 -20.11,11.48 -40.28,23 -1.84,-1.91 -4.25,-3.28 -17.64,-10.04 -35.98,-19.98 a 1.26,1.25 45.1 0 1 0,-2.21 q 21.06,-11.19 42.34,-22.65 c 2.58,-1.39 5.57,-3.88 8.57,-2.28 q 15.9,8.49 31.66,17.26 6.13,3.42 9.12,11.49 z"
       id="path107" />
    <path
       id="path112"
       d="m 526.89,376.15 43.02,24.13 c -11.55333,6.04 -22.72,12.08 -33.5,18.12 -1.8,1.01 -3.81,1.76 -5.7,2.61 -0.30667,0.13333 -0.46333,0.36667 -0.47,0.7 l -0.29,22.33454 c -4.79333,0.21333 -9.62404,-3.32314 -13.83737,-5.58981 L 454.98,404.52 c -0.82667,-2.28 -2.09667,-3.50333 -3.81,-3.67 -0.30667,-0.0333 -0.56667,-0.16333 -0.78,-0.39 -1.76,-1.86 -4.07,-2.4 -4.03,-5.77 0.01,-0.67 0.55,-1.61 0.13,-2.54 -0.11751,-0.26141 -0.1591,-0.5491 -0.12,-0.83 0.46,-3.7 0.36,-6.63667 -0.3,-8.81 -0.54667,-1.81333 -0.66667,-3.56333 -0.36,-5.25 0.0733,-0.4 0.29,-0.50667 0.65,-0.32 9.06667,4.7 17.92,9.61 26.56,14.73 13.01,7.7 26.04,14.02 39.03,21.09 0.63347,0.34599 1.42448,0.0523 1.67,-0.62 l 0.81,-2.17 c 0.0907,-0.23992 0.0977,-0.50411 0.02,-0.75 -0.23333,-0.72 -0.0533,-1.22 0.54,-1.5 0.32667,-0.15333 0.52,-0.41 0.58,-0.77 0.16,-0.89333 0.54667,-1.68667 1.16,-2.38 0.22667,-0.26 0.27,-0.54667 0.13,-0.86 -0.19333,-0.42667 -0.28,-0.87667 -0.26,-1.35 0.0262,-0.52549 0.12099,-0.9607 0.27,-1.24 0.08,-0.14667 0.20333,-0.23667 0.37,-0.27 0.33333,-0.06 0.53667,-0.25667 0.61,-0.59 0.0733,-0.34667 -0.13667,-0.65 -0.63,-0.91 -0.12,-0.0667 -0.11333,-0.12333 0.02,-0.17 l 0.53,-0.19 c 0.06,-0.0267 0.0867,-0.07 0.08,-0.13 -0.08,-1.34667 0.21667,-2.61 0.89,-3.79 0.16667,-0.29333 0.23,-0.60667 0.19,-0.94 -0.0467,-0.33333 -0.03,-0.65333 0.05,-0.96 0.0533,-0.23333 0.20667,-0.46667 0.46,-0.7 1.13,-1.06 1.69,-2.46 2.69,-3.51 1.04,-1.08667 2.02333,-2.23 2.95,-3.43 0.17055,-0.22281 0.28086,-0.49168 0.32,-0.78 0.12,-0.94 0.40333,-1.81333 0.85,-2.62 0.10667,-0.19333 0.0533,-0.28 -0.16,-0.26 -0.16,0.0133 -0.31667,0.0133 -0.47,0 -0.12667,-0.0133 -0.16333,-0.0767 -0.11,-0.19 l 1.43,-3.04 c 0.14667,-0.31333 0.19667,-0.64 0.15,-0.98 z m -1.16,-0.56 1.16,0.56 0.2,1.51 c 0.0467,0.34 -0.003,0.66667 -0.15,0.98 l -1.43,3.04 c -0.0533,0.11333 -0.0167,0.17667 0.11,0.19 0.15333,0.0133 0.31,0.0133 0.47,0 0.21333,-0.02 0.26667,0.0667 0.16,0.26 -0.44667,0.80667 -0.73,1.68 -0.85,2.62 -0.0391,0.28832 -0.14945,0.55719 -0.32,0.78 -0.92667,1.2 -1.91,2.34333 -2.95,3.43 -1,1.05 -1.56,2.45 -2.69,3.51 -0.25333,0.23333 -0.40667,0.46667 -0.46,0.7 -0.08,0.30667 -0.0967,0.62667 -0.05,0.96 0.04,0.33333 -0.0233,0.64667 -0.19,0.94 -0.67333,1.18 -0.97,2.44333 -0.89,3.79 0.007,0.06 -0.02,0.10333 -0.08,0.13 l -0.53,0.19 c -0.13333,0.0467 -0.14,0.10333 -0.02,0.17 0.49333,0.26 0.70333,0.56333 0.63,0.91 -0.0733,0.33333 -0.27667,0.53 -0.61,0.59 -0.16667,0.0333 -0.29,0.12333 -0.37,0.27 -0.14901,0.2793 -0.24377,0.71451 -0.27,1.24 -0.02,0.47333 0.0667,0.92333 0.26,1.35 0.14,0.31333 0.0967,0.6 -0.13,0.86 -0.61333,0.69333 -1,1.48667 -1.16,2.38 -0.06,0.36 -0.25333,0.61667 -0.58,0.77 -0.59333,0.28 -0.77333,0.78 -0.54,1.5 0.0777,0.24589 0.0707,0.51008 -0.02,0.75 l -0.81,2.17 c -0.24552,0.67232 -1.03653,0.96599 -1.67,0.62 -12.99,-7.07 -26.02,-13.39 -39.03,-21.09 -8.64,-5.12 -17.49333,-10.03 -26.56,-14.73 -0.36,-0.18667 -0.57667,-0.08 -0.65,0.32 -0.30667,1.68667 -0.18667,3.43667 0.36,5.25 0.66,2.17333 0.76,5.11 0.3,8.81 -0.0391,0.2809 0.002,0.56859 0.12,0.83 0.42,0.93 -0.12,1.87 -0.13,2.54 -0.04,3.37 2.27,3.91 4.03,5.77 0.21333,0.22667 0.47333,0.35667 0.78,0.39 1.71333,0.16667 2.98333,1.39 3.81,3.67 -10.07333,-5.68667 -20.23333,-11.19333 -30.48,-16.52 -3.44667,-1.79333 -6.10333,-4.96333 -7.97,-9.51 -1.71333,-10.86667 2.03,-18.80333 11.23,-23.81 5.05333,-2.74667 13.89,-7.44667 26.51,-14.1 1.45333,-0.76667 2.68667,-1.33 3.7,-1.69 0.32053,-0.11538 0.67664,-0.0974 0.99,0.05 5.28,2.50667 10.46333,5.17 15.55,7.99 17.09333,9.49333 34.16667,19.04667 51.22,28.66 z"
       style="fill:#ff3c4a;fill-opacity:1"
       sodipodi:nodetypes="cccccccccccccccccccccccccccccccccccccccccccccccccccccccccccccccccccccccccccccccscccccccccccccccc" />
    <path
       id="path117"
       d="m 490.27,445.76 c 11.49,6.03 24.21,13.67 34.21,18.57 q 2.22,1.09 5.31,0.58 l -0.16,60.14 0.12,32.42 q 0.01,1.62 -1.61,1.6 L 523.49,559 q -7.6,-1.15 -11.4,-3.35 c -14.78,-8.56 -25.24,-13.84 -37.78,-20.94 -11.33,-6.42 -23.03,-12.63 -34.29,-19.46 l 0.53,-0.59 a 0.52,0.52 0 0 0 -0.25,-0.85 q -0.37,-0.09 -0.73,-0.34 a 0.3,0.3 0 0 1 0,-0.5 q 0.24,-0.17 0.47,0.11 0.09,0.11 0.09,-0.03 0,-0.17 0.04,-0.31 0.06,-0.16 0.22,-0.23 2.3,-0.94 4.82,-0.57 0.51,0.08 0.5,-0.44 c -0.06,-2.26 0.32,-3.87 2.09,-5.51 1.67,-1.55 3.17,-3.16 4.89,-4.67 0.92,-0.81 1.28,-1.81 2.18,-2.63 1.01,-0.93 1.56,-1.94 2.67,-2.77 q 1.58,-1.19 2.91,-2.65 0.34,-0.37 0.84,-0.32 0.5,0.05 0.63,-0.48 a 0.95,0.94 84.4 0 1 0.5,-0.61 q 1.34,-0.67 1.92,-2.02 0.14,-0.33 0.43,-0.13 0.19,0.14 0.38,0.11 0.11,-0.02 0.2,-0.15 2.27,-3.13 4.93,-5.91 0.33,-0.34 0.67,-0.01 l 0.23,0.21 q 0.14,0.13 0.31,0.07 0.91,-0.3 0.93,-1.32 0.01,-0.48 0.42,-0.72 l 2.95,-1.74 q 0.37,-0.22 0.43,-0.64 0.25,-1.74 1.57,-2.86 0.36,-0.31 0.37,-0.8 0.01,-0.75 0.61,-1.19 0.34,-0.25 0.48,-0.64 0.37,-1.01 1.54,-2.34 0.99,-1.13 2.55,-4.35 c 1.76,-3.63 5.59,-7.48 4.2,-11.85 q -0.14,-0.46 0.06,-0.9 1.68,-3.57 2.26,-5.42 0.38,-1.2 0.41,-3.5 z m -1.6,-0.94 1.6,0.94 q -0.03,2.3 -0.41,3.5 -0.58,1.85 -2.26,5.42 -0.2,0.44 -0.06,0.9 c 1.39,4.37 -2.44,8.22 -4.2,11.85 q -1.56,3.22 -2.55,4.35 -1.17,1.33 -1.54,2.34 -0.14,0.39 -0.48,0.64 -0.6,0.44 -0.61,1.19 -0.01,0.49 -0.37,0.8 -1.32,1.12 -1.57,2.86 -0.06,0.42 -0.43,0.64 l -2.95,1.74 q -0.41,0.24 -0.42,0.72 -0.02,1.02 -0.93,1.32 -0.17,0.06 -0.31,-0.07 l -0.23,-0.21 q -0.34,-0.33 -0.67,0.01 -2.66,2.78 -4.93,5.91 -0.09,0.13 -0.2,0.15 -0.19,0.03 -0.38,-0.11 -0.29,-0.2 -0.43,0.13 -0.58,1.35 -1.92,2.02 a 0.95,0.94 84.4 0 0 -0.5,0.61 q -0.13,0.53 -0.63,0.48 -0.5,-0.05 -0.84,0.32 -1.33,1.46 -2.91,2.65 c -1.11,0.83 -1.66,1.84 -2.67,2.77 -0.9,0.82 -1.26,1.82 -2.18,2.63 -1.72,1.51 -3.22,3.12 -4.89,4.67 -1.77,1.64 -2.15,3.25 -2.09,5.51 q 0.01,0.52 -0.5,0.44 -2.52,-0.37 -4.82,0.57 -0.16,0.07 -0.22,0.23 -0.04,0.14 -0.04,0.31 0,0.14 -0.09,0.03 -0.23,-0.28 -0.47,-0.11 a 0.3,0.3 0 0 0 0,0.5 q 0.36,0.25 0.73,0.34 a 0.52,0.52 0 0 1 0.25,0.85 l -0.53,0.59 -6.28,-3.4 c -7.8,-4.16 -13.66,-7.34 -16.6,-15.35 q -1.41,-3.84 -1.38,-13.17 0.05,-14.49 -0.05,-29.35 0.09,-15.33 0.08,-31.23 c -0.01,-9.25 6.29,-14.27 15.12,-9.44 q 28.89,15.79 57.76,31.51 z"
       style="fill:url(#linearGradient139);fill-opacity:1" />
    <g
       id="g1">
      <path
         fill="#8d1132"
         d="m 641.19,368.13 c 1.07333,1.78 1.49333,3.91333 1.26,6.4 -0.85,7.77 -4.12,12.2 -10.73,15.28 L 589.6858,413.71063 589.73,389.78 c 13.44667,-7.68 26.87333,-15.34667 40.28,-23 4.11333,-2.35333 7.51,-1.53333 10.19,2.46 0.22667,0.33333 0.44333,0.33 0.65,-0.01 0.16,-0.24667 0.27333,-0.61333 0.34,-1.1 z"
         id="path110"
         sodipodi:nodetypes="ccccccccc" />
      <path
         fill="#8d1132"
         d="m 569.91,400.28 0.22,24.77495 c -7.26,4.12667 -14.67333,8.14065 -22.24,12.51398 -5.05,2.91 -11.97,7.04104 -17.94,6.42104 L 530.24,421.71 c 0.007,-0.33333 0.16333,-0.56667 0.47,-0.7 1.89,-0.85 3.9,-1.6 5.7,-2.61 10.78,-6.04 21.94667,-12.08 33.5,-18.12 z"
         id="path113"
         sodipodi:nodetypes="cccccccc" />
      <path
         id="path118"
         d="m 642.85,448.72 q -0.06,19.36 -0.11,39.78 c -0.02,10.88 -5.65,17.36 -14.87,22.16 -14.52,7.55 -28.58,15.83 -43.06,23.44 q -19.43,10.19 -38.6,20.86 -10.13,5.63 -22.72,4.04 l 4.65,0.07 q 1.62,0.02 1.61,-1.6 l -0.12,-32.42 0.3,-10.95 q 0.01,-0.48 0.27,-0.89 0.19,-0.31 0.19,-0.63 -0.01,-0.37 -0.13,-0.71 -0.42,-1.2 0.21,-2.25 0.13,-0.22 0.38,-0.26 0.12,-0.02 0.25,-0.07 0.14,-0.05 0.22,-0.17 0.11,-0.19 0.14,-0.39 0.01,-0.02 0.29,-0.36 0.26,-0.3 0.51,-0.19 0.66,0.29 1.09,-0.29 2.51,-3.45 6.6,-4.82 0.56,-0.19 0.42,-0.76 -0.29,-1.21 0.75,-1.45 0.47,-0.11 0.76,-0.5 0.25,-0.33 0.37,-0.7 0.16,-0.47 0.55,-0.75 c 3.26,-2.33 5.51,-3.36 8.23,-5.17 5.85,-3.87 12.28,-7.4 17.46,-9.75 q 7.8,-3.55 11.86,-5.89 6.28,-3.61 12.51,-7.3 c 1.37,-0.82 3.81,-1.88 5.54,-3.25 q 0.27,-0.22 0.49,-0.23 0.15,-0.01 0.29,0.04 0.27,0.09 0.05,0.27 l -0.65,0.53 q -0.22,0.18 -0.02,0.37 l 0.3,0.3 a 0.67,0.67 0 0 0 0.81,0.12 l 11.61,-6.2 a 0.48,0.48 0 0 1 0.71,0.42 q 0,0.41 0.41,0.51 a 0.61,0.61 0 0 0 0.4,-0.06 l 5.11,-2.78 q 0.37,-0.2 0.52,-0.6 l 0.18,-0.5 q 0.18,-0.48 0.65,-0.7 4.8,-2.19 9.48,-4.64 3.24,-1.69 6.99,-2.97 3.74,-1.27 7.12,-2.71 z m 0,0 q -3.38,1.44 -7.12,2.71 -3.75,1.28 -6.99,2.97 -4.68,2.45 -9.48,4.64 -0.47,0.22 -0.65,0.7 l -0.18,0.5 q -0.15,0.4 -0.52,0.6 l -5.11,2.78 a 0.61,0.61 0 0 1 -0.4,0.06 q -0.41,-0.1 -0.41,-0.51 a 0.48,0.48 0 0 0 -0.71,-0.42 l -11.61,6.2 a 0.67,0.67 0 0 1 -0.81,-0.12 l -0.3,-0.3 q -0.2,-0.19 0.02,-0.37 l 0.65,-0.53 q 0.22,-0.18 -0.05,-0.27 -0.14,-0.05 -0.29,-0.04 -0.22,0.01 -0.49,0.23 c -1.73,1.37 -4.17,2.43 -5.54,3.25 q -6.23,3.69 -12.51,7.3 -4.06,2.34 -11.86,5.89 c -5.18,2.35 -11.61,5.88 -17.46,9.75 -2.72,1.81 -4.97,2.84 -8.23,5.17 q -0.39,0.28 -0.55,0.75 -0.12,0.37 -0.37,0.7 -0.29,0.39 -0.76,0.5 -1.04,0.24 -0.75,1.45 0.14,0.57 -0.42,0.76 -4.09,1.37 -6.6,4.82 -0.43,0.58 -1.09,0.29 -0.25,-0.11 -0.51,0.19 -0.28,0.34 -0.29,0.36 -0.03,0.2 -0.14,0.39 -0.08,0.12 -0.22,0.17 -0.13,0.05 -0.25,0.07 -0.25,0.04 -0.38,0.26 -0.63,1.05 -0.21,2.25 0.12,0.34 0.13,0.71 0,0.32 -0.19,0.63 -0.26,0.41 -0.27,0.89 l -0.3,10.95 0.16,-60.14 q 7.89,-2.33 18.77,-8.12 14.33,-7.64 28.51,-15.58 c 16.66,-9.33 33.34,-18.19 49.94,-27.41 8.91,-4.94 15.87,-1.92 15.95,8.64 q 0.1,12.71 -0.11,26.28 z"
         style="fill:url(#linearGradient141);fill-opacity:1" />
    </g>
  </g>
  <path
     style="font-weight:bold;font-size:196.137px;font-family:Sarabun;-inkscape-font-specification:'Sarabun, Bold';fill:#d4163c;stroke-width:16.3448"
     d="m 96.793935,790.45411 q -15.494823,0 -28.04759,-6.27639 -12.356631,-6.27638 -20.202111,-18.0446 l 16.279371,-15.69096 q 6.472521,7.64934 15.690959,12.55277 9.218439,4.90342 17.260056,4.90342 9.0223,0 14.51414,-4.11887 5.49183,-4.11888 5.49183,-10.78754 0,-4.90342 -1.76523,-8.04162 -1.76523,-3.13819 -6.66866,-6.27638 -4.90342,-3.33433 -16.083231,-8.82616 -14.710275,-7.25707 -23.144165,-13.53346 -8.433891,-6.27638 -12.552768,-13.53345 -3.92274,-7.45321 -3.92274,-17.26005 0,-10.78754 5.687973,-19.02529 5.687973,-8.23776 16.083234,-12.74891 10.39526,-4.51115 23.928713,-4.51115 14.906414,0 26.282354,5.68797 11.57209,5.68798 16.86778,15.69096 l -17.84846,13.33732 q -9.80685,-12.16049 -24.12485,-12.16049 -9.022304,0 -13.925729,3.53046 -4.903425,3.53047 -4.903425,10.00299 0,3.92274 2.353644,7.06093 2.549781,3.13819 9.022302,6.86479 6.472521,3.72661 19.417558,9.80685 12.55277,5.88411 19.6137,11.76822 7.25707,5.88411 10.39526,13.14118 3.1382,7.25707 3.1382,17.26006 0,11.76822 -6.08025,20.79052 -5.88411,8.82616 -17.06392,13.72959 -10.98367,4.70729 -25.693945,4.70729 z m 63.744645,-73.94365 q 0,-19.6137 -0.78455,-26.08622 h 21.96734 q 0.98069,7.84548 0.98069,17.06392 h 0.39227 q 3.13819,-8.82617 11.37595,-13.92573 8.23775,-5.09956 19.22142,-5.09956 10.5914,0 18.0446,4.70729 7.45321,4.51115 10.00299,12.55277 3.92274,-8.04162 11.96436,-12.55277 8.04161,-4.70729 18.0446,-4.70729 16.27937,0 25.49781,10.5914 9.41458,10.39526 9.41458,28.83214 v 60.60633 h -24.9094 v -57.86042 q 0,-10.39526 -4.51115,-16.08323 -4.51115,-5.88411 -12.35663,-5.88411 -8.63003,0 -13.92573,6.08025 -5.09956,5.88411 -5.09956,16.08323 v 57.66428 h -24.71326 v -57.07587 q 0,-10.78753 -4.31502,-16.67164 -4.31501,-6.08025 -12.16049,-6.08025 -8.43389,0 -13.92573,6.47252 -5.2957,6.27639 -5.2957,16.27937 v 57.07587 h -24.90939 z m 195.94099,73.94365 q -9.61072,0 -17.26006,-3.92274 -7.64934,-4.11888 -11.96436,-11.17981 -4.31501,-7.25707 -4.31501,-16.08324 0,-15.10254 11.96436,-23.14416 11.96435,-8.04162 34.12783,-8.04162 h 15.29869 v -4.11887 q 0,-7.84548 -4.70729,-11.96436 -4.51115,-4.31501 -12.94504,-4.31501 -8.82617,0 -16.86778,3.13819 -8.04162,3.13819 -13.14118,8.63003 l -10.98367,-14.51414 q 8.04161,-7.64935 19.02529,-11.96436 10.98367,-4.51115 22.75189,-4.51115 19.6137,0 30.79351,9.21844 11.1798,9.21844 11.1798,25.49781 v 44.71923 q 0,4.51115 0.58842,10.5914 0.78454,6.08025 1.76523,10.00299 h -22.16348 q -1.17682,-2.54978 -1.76524,-4.90343 -0.58841,-2.54978 -0.98068,-6.86479 h -0.39227 q -11.17981,13.72959 -30.00896,13.72959 z m 6.08024,-18.82915 q 9.41458,0 15.49483,-4.70729 6.27638,-4.90343 6.27638,-12.35663 v -9.80685 h -16.08323 q -10.00299,0 -15.49483,3.7266 -5.2957,3.7266 -5.2957,10.78753 0,5.88411 3.92274,9.21844 4.11888,3.1382 11.17981,3.1382 z m 68.84394,-57.27201 q 0,-16.67164 -0.58842,-23.92871 h 23.73258 q 0.78455,7.64934 0.78455,17.26006 v 1.96137 h 0.78455 q 3.7266,-9.61072 13.14117,-15.29869 9.41458,-5.88411 21.57507,-5.88411 2.35365,0 5.88411,0.58841 v 19.80984 q -0.78454,-0.39228 -4.70728,-0.39228 -9.41458,0 -17.65233,5.09957 -8.04162,5.09956 -12.94504,13.72958 -4.90343,8.4339 -4.90343,18.24075 v 42.954 h -25.10553 z m 119.44731,76.10116 q -15.10255,0 -23.53644,-8.23776 -8.43389,-8.23775 -8.43389,-23.14416 v -50.01494 h -17.84847 v -18.63301 h 17.84847 v -25.30167 l 24.32099,-7.06093 h 0.78454 v 32.3626 h 28.43987 v 18.63301 h -28.43987 v 46.28833 q 0,8.4339 3.92274,12.35664 3.92274,3.92274 11.96436,3.92274 7.64934,0 14.318,-2.35365 l 1.17682,17.06392 q -8.82616,4.11888 -24.51712,4.11888 z"
     id="text136"
     aria-label="Smart" />
  <path
     style="font-weight:bold;font-size:196.137px;font-family:Sarabun;-inkscape-font-specification:'Sarabun, Bold';fill:#d4163c;stroke-width:16.3448"
     d="m 48.249701,956.86225 q -15.494823,0 -28.04759,-6.27638 Q 7.84548,944.30948 2.2125244e-7,932.54126 L 16.279371,916.8503 q 6.47252,7.64934 15.690959,12.55277 9.218439,4.90342 17.260056,4.90342 9.022301,0 14.514137,-4.11887 5.491836,-4.11888 5.491836,-10.78754 0,-4.90342 -1.765233,-8.04161 -1.765233,-3.1382 -6.668658,-6.27639 -4.903425,-3.33433 -16.083233,-8.82616 -14.710275,-7.25707 -23.144166,-13.53345 -8.43389,-6.27639 -12.5527671,-13.53346 -3.9227399,-7.4532 -3.9227399,-17.26005 0,-10.78754 5.687973,-19.02529 5.687973,-8.23775 16.083233,-12.74891 10.395261,-4.51115 23.928714,-4.51115 14.906411,0 26.282357,5.68798 11.572082,5.68797 16.867781,15.69096 l -17.848466,13.33731 q -9.80685,-12.16049 -24.124851,-12.16049 -9.022301,0 -13.925726,3.53046 -4.903425,3.53047 -4.903425,10.00299 0,3.92274 2.353644,7.06093 2.549781,3.13819 9.022302,6.8648 6.472521,3.7266 19.417562,9.80685 12.552768,5.88411 19.613699,11.76822 7.257069,5.88411 10.395261,13.14117 3.138192,7.25707 3.138192,17.26006 0,11.76822 -6.080247,20.79052 -5.88411,8.82617 -17.063918,13.72959 -10.983672,4.70729 -25.693946,4.70729 z m 106.502509,0 q -15.10255,0 -23.53644,-8.23775 -8.43389,-8.23776 -8.43389,-23.14417 V 875.4654 h -17.84847 v -18.63302 h 17.84847 v -25.30167 l 24.32098,-7.06093 h 0.78455 v 32.3626 h 28.43987 v 18.63302 h -28.43987 v 46.28833 q 0,8.43389 3.92274,12.35663 3.92274,3.92274 11.96436,3.92274 7.64934,0 14.318,-2.35365 l 1.17682,17.06392 q -8.82616,4.11888 -24.51712,4.11888 z m 81.00446,0 q -23.73258,0 -37.0699,-13.53345 -13.33731,-13.53346 -13.33731,-37.46217 0,-23.92871 13.33731,-37.46217 13.33732,-13.53345 37.0699,-13.53345 23.73257,0 37.06989,13.53345 13.53345,13.53346 13.53345,37.46217 0,23.92871 -13.53345,37.46217 -13.33732,13.53345 -37.06989,13.53345 z m 0,-18.63302 q 11.96435,0 18.82915,-8.63002 6.86479,-8.63003 6.86479,-23.73258 0,-15.10255 -6.86479,-23.73258 -6.8648,-8.63002 -18.82915,-8.63002 -11.96436,0 -18.82915,8.63002 -6.66866,8.63003 -6.66866,23.73258 0,15.10255 6.66866,23.73258 6.86479,8.63002 18.82915,8.63002 z m 111.01363,18.63302 q -22.75189,0 -35.89307,-13.53345 -12.94504,-13.72959 -12.94504,-37.46217 0,-23.92871 12.94504,-37.46217 13.14118,-13.53345 35.89307,-13.53345 13.72959,0 23.92871,5.09956 10.19913,5.09957 15.69096,14.51414 l -15.10254,13.14118 q -3.72661,-6.47252 -10.00299,-10.00299 -6.08025,-3.53046 -13.33732,-3.53046 -11.76822,0 -18.43687,8.43389 -6.66866,8.43389 -6.66866,23.3403 0,14.90641 6.66866,23.3403 6.66865,8.43389 18.43687,8.43389 7.25707,0 13.33732,-3.53046 6.08025,-3.72661 10.00299,-10.00299 l 15.10254,13.14118 q -5.49183,9.41458 -15.69096,14.51414 -10.19912,5.09956 -23.92871,5.09956 z m 118.07458,-1.96137 -29.02827,-45.69992 -11.76822,11.57208 v 34.12784 H 398.94285 V 809.36723 h 25.10554 v 81.39685 l 34.52011,-33.9317 h 30.79351 l -36.28535,35.5008 40.01195,62.5677 z m 55.50695,-109.44444 q -7.25707,0 -11.57208,-3.92274 -4.31501,-4.11888 -4.31501,-10.78754 0,-6.66866 4.31501,-10.5914 4.31501,-4.11887 11.57208,-4.11887 7.25707,0 11.57208,4.11887 4.51116,3.92274 4.51116,10.5914 0,6.66866 -4.31502,10.78754 -4.31501,3.92274 -11.76822,3.92274 z m -12.35663,11.37594 h 24.9094 v 98.0685 h -24.9094 z m 91.4,100.02987 q -15.10254,0 -23.53643,-8.23775 -8.4339,-8.23776 -8.4339,-23.14417 V 875.4654 h -17.84846 v -18.63302 h 17.84846 v -25.30167 l 24.32099,-7.06093 h 0.78455 v 32.3626 h 28.43986 v 18.63302 h -28.43986 v 46.28833 q 0,8.43389 3.92274,12.35663 3.92274,3.92274 11.96436,3.92274 7.64934,0 14.318,-2.35365 l 1.17682,17.06392 q -8.82617,4.11888 -24.51713,4.11888 z"
     id="text1"
     aria-label="Stockit" />
  <path
     fill="#06bbff"
     d="m 543.45926,831.3939 q -2.13929,6.98668 -10.11523,13.05832 c -12.50185,9.52166 -30.82797,0.98925 -36.07106,-12.53894 -4.056,-14.48037 3.73446,-27.87253 18.06644,-31.81724 9.21253,-2.535 16.43415,0.97691 22.59232,7.44423 6.23237,6.55387 7.93885,14.99972 5.52753,23.85363 z"
     id="path123"
     style="fill:#ffffff;fill-opacity:1;stroke-width:1.23658" />
</svg>
