<?xml version="1.0" encoding="UTF-8" standalone="no"?>
<svg
   version="1.1"
   viewBox="0 0 2224.3538 545.85992"
   id="svg131"
   sodipodi:docname="smartstockit-logo-h-reverse-plain.svg"
   inkscape:version="1.3.1 (91b66b0783, 2023-11-16)"
   width="2224.3538"
   height="545.85992"
   inkscape:export-filename="smartstockit-logo-h-reverse-plain.svg"
   inkscape:export-xdpi="96"
   inkscape:export-ydpi="96"
   xmlns:inkscape="http://www.inkscape.org/namespaces/inkscape"
   xmlns:sodipodi="http://sodipodi.sourceforge.net/DTD/sodipodi-0.dtd"
   xmlns:xlink="http://www.w3.org/1999/xlink"
   xmlns="http://www.w3.org/2000/svg"
   xmlns:svg="http://www.w3.org/2000/svg">
  <defs
     id="defs131">
    <linearGradient
       id="linearGradient140"
       inkscape:collect="always">
      <stop
         style="stop-color:#840d25;stop-opacity:1;"
         offset="0"
         id="stop140" />
      <stop
         style="stop-color:#840d25;stop-opacity:0.58122742;"
         offset="1"
         id="stop141" />
    </linearGradient>
    <linearGradient
       id="linearGradient138"
       inkscape:collect="always">
      <stop
         style="stop-color:#d4163c;stop-opacity:1;"
         offset="0"
         id="stop138" />
      <stop
         style="stop-color:#840d25;stop-opacity:1;"
         offset="1"
         id="stop139" />
    </linearGradient>
    <linearGradient
       inkscape:collect="always"
       xlink:href="#linearGradient138"
       id="linearGradient139"
       x1="434.84589"
       y1="449.45285"
       x2="529.17267"
       y2="522.90997"
       gradientUnits="userSpaceOnUse" />
    <linearGradient
       inkscape:collect="always"
       xlink:href="#linearGradient140"
       id="linearGradient141"
       x1="580.89764"
       y1="439.12253"
       x2="616.44891"
       y2="516.28339"
       gradientUnits="userSpaceOnUse" />
    <filter
       style="color-interpolation-filters:sRGB;"
       inkscape:label="Fade to Black or White"
       id="filter72"
       x="0"
       y="0"
       width="1"
       height="1">
      <feColorMatrix
         values="0 0 0 0 1 0 0 0 0 1 0 0 0 0 1 0 0 0 1 0"
         id="feColorMatrix72" />
    </filter>
  </defs>
  <sodipodi:namedview
     id="namedview131"
     pagecolor="#505050"
     bordercolor="#eeeeee"
     borderopacity="1"
     inkscape:showpageshadow="0"
     inkscape:pageopacity="0"
     inkscape:pagecheckerboard="0"
     inkscape:deskcolor="#505050"
     showgrid="false"
     inkscape:zoom="0.42310673"
     inkscape:cx="1173.4628"
     inkscape:cy="223.3479"
     inkscape:window-width="1920"
     inkscape:window-height="991"
     inkscape:window-x="-9"
     inkscape:window-y="-9"
     inkscape:window-maximized="1"
     inkscape:current-layer="svg131" />
  <g
     id="g2"
     transform="matrix(1.6167727,0,0,1.6167727,-614.24868,-423.84735)"
     style="filter:url(#filter72)">
    <path
       fill="#ff5f59"
       d="m 555.18,314.49 17.51,9.87 c 0.85625,0.48478 0.81585,1.73168 -0.07,2.16 -2.77882,1.31708 -33.78117,18.668 -41.27,22.75 -1.78,0.98 -3.32,0.99 -5.27,1.06 l -30.82,-16.92 c -4.5,-1.97333 -8.67333,-4.73333 -12.52,-8.28 9.55333,-5.66667 19.15333,-11.16333 28.8,-16.49 6.00667,-3.31333 10.43,-5.23333 13.27,-5.76 10.74,-1.97 21.55,6.41 30.37,11.61 z"
       id="path103"
       style="fill:#ff3c4a;fill-opacity:1"
       sodipodi:nodetypes="cccccccccc" />
    <path
       fill="#ff3c4a"
       d="m 641.19,368.13 q -0.1,0.73 -0.34,1.1 -0.31,0.51 -0.65,0.01 -4.02,-5.99 -10.19,-2.46 -20.11,11.48 -40.28,23 -1.84,-1.91 -4.25,-3.28 -17.64,-10.04 -35.98,-19.98 a 1.26,1.25 45.1 0 1 0,-2.21 q 21.06,-11.19 42.34,-22.65 c 2.58,-1.39 5.57,-3.88 8.57,-2.28 q 15.9,8.49 31.66,17.26 6.13,3.42 9.12,11.49 z"
       id="path107" />
    <path
       id="path112"
       d="m 526.89,376.15 43.02,24.13 c -11.55333,6.04 -22.72,12.08 -33.5,18.12 -1.8,1.01 -3.81,1.76 -5.7,2.61 -0.30667,0.13333 -0.46333,0.36667 -0.47,0.7 l -0.29,22.33454 c -4.79333,0.21333 -9.62404,-3.32314 -13.83737,-5.58981 L 454.98,404.52 c -0.82667,-2.28 -2.09667,-3.50333 -3.81,-3.67 -0.30667,-0.0333 -0.56667,-0.16333 -0.78,-0.39 -1.76,-1.86 -4.07,-2.4 -4.03,-5.77 0.01,-0.67 0.55,-1.61 0.13,-2.54 -0.11751,-0.26141 -0.1591,-0.5491 -0.12,-0.83 0.46,-3.7 0.36,-6.63667 -0.3,-8.81 -0.54667,-1.81333 -0.66667,-3.56333 -0.36,-5.25 0.0733,-0.4 0.29,-0.50667 0.65,-0.32 9.06667,4.7 17.92,9.61 26.56,14.73 13.01,7.7 26.04,14.02 39.03,21.09 0.63347,0.34599 1.42448,0.0523 1.67,-0.62 l 0.81,-2.17 c 0.0907,-0.23992 0.0977,-0.50411 0.02,-0.75 -0.23333,-0.72 -0.0533,-1.22 0.54,-1.5 0.32667,-0.15333 0.52,-0.41 0.58,-0.77 0.16,-0.89333 0.54667,-1.68667 1.16,-2.38 0.22667,-0.26 0.27,-0.54667 0.13,-0.86 -0.19333,-0.42667 -0.28,-0.87667 -0.26,-1.35 0.0262,-0.52549 0.12099,-0.9607 0.27,-1.24 0.08,-0.14667 0.20333,-0.23667 0.37,-0.27 0.33333,-0.06 0.53667,-0.25667 0.61,-0.59 0.0733,-0.34667 -0.13667,-0.65 -0.63,-0.91 -0.12,-0.0667 -0.11333,-0.12333 0.02,-0.17 l 0.53,-0.19 c 0.06,-0.0267 0.0867,-0.07 0.08,-0.13 -0.08,-1.34667 0.21667,-2.61 0.89,-3.79 0.16667,-0.29333 0.23,-0.60667 0.19,-0.94 -0.0467,-0.33333 -0.03,-0.65333 0.05,-0.96 0.0533,-0.23333 0.20667,-0.46667 0.46,-0.7 1.13,-1.06 1.69,-2.46 2.69,-3.51 1.04,-1.08667 2.02333,-2.23 2.95,-3.43 0.17055,-0.22281 0.28086,-0.49168 0.32,-0.78 0.12,-0.94 0.40333,-1.81333 0.85,-2.62 0.10667,-0.19333 0.0533,-0.28 -0.16,-0.26 -0.16,0.0133 -0.31667,0.0133 -0.47,0 -0.12667,-0.0133 -0.16333,-0.0767 -0.11,-0.19 l 1.43,-3.04 c 0.14667,-0.31333 0.19667,-0.64 0.15,-0.98 z m -1.16,-0.56 1.16,0.56 0.2,1.51 c 0.0467,0.34 -0.003,0.66667 -0.15,0.98 l -1.43,3.04 c -0.0533,0.11333 -0.0167,0.17667 0.11,0.19 0.15333,0.0133 0.31,0.0133 0.47,0 0.21333,-0.02 0.26667,0.0667 0.16,0.26 -0.44667,0.80667 -0.73,1.68 -0.85,2.62 -0.0391,0.28832 -0.14945,0.55719 -0.32,0.78 -0.92667,1.2 -1.91,2.34333 -2.95,3.43 -1,1.05 -1.56,2.45 -2.69,3.51 -0.25333,0.23333 -0.40667,0.46667 -0.46,0.7 -0.08,0.30667 -0.0967,0.62667 -0.05,0.96 0.04,0.33333 -0.0233,0.64667 -0.19,0.94 -0.67333,1.18 -0.97,2.44333 -0.89,3.79 0.007,0.06 -0.02,0.10333 -0.08,0.13 l -0.53,0.19 c -0.13333,0.0467 -0.14,0.10333 -0.02,0.17 0.49333,0.26 0.70333,0.56333 0.63,0.91 -0.0733,0.33333 -0.27667,0.53 -0.61,0.59 -0.16667,0.0333 -0.29,0.12333 -0.37,0.27 -0.14901,0.2793 -0.24377,0.71451 -0.27,1.24 -0.02,0.47333 0.0667,0.92333 0.26,1.35 0.14,0.31333 0.0967,0.6 -0.13,0.86 -0.61333,0.69333 -1,1.48667 -1.16,2.38 -0.06,0.36 -0.25333,0.61667 -0.58,0.77 -0.59333,0.28 -0.77333,0.78 -0.54,1.5 0.0777,0.24589 0.0707,0.51008 -0.02,0.75 l -0.81,2.17 c -0.24552,0.67232 -1.03653,0.96599 -1.67,0.62 -12.99,-7.07 -26.02,-13.39 -39.03,-21.09 -8.64,-5.12 -17.49333,-10.03 -26.56,-14.73 -0.36,-0.18667 -0.57667,-0.08 -0.65,0.32 -0.30667,1.68667 -0.18667,3.43667 0.36,5.25 0.66,2.17333 0.76,5.11 0.3,8.81 -0.0391,0.2809 0.002,0.56859 0.12,0.83 0.42,0.93 -0.12,1.87 -0.13,2.54 -0.04,3.37 2.27,3.91 4.03,5.77 0.21333,0.22667 0.47333,0.35667 0.78,0.39 1.71333,0.16667 2.98333,1.39 3.81,3.67 -10.07333,-5.68667 -20.23333,-11.19333 -30.48,-16.52 -3.44667,-1.79333 -6.10333,-4.96333 -7.97,-9.51 -1.71333,-10.86667 2.03,-18.80333 11.23,-23.81 5.05333,-2.74667 13.89,-7.44667 26.51,-14.1 1.45333,-0.76667 2.68667,-1.33 3.7,-1.69 0.32053,-0.11538 0.67664,-0.0974 0.99,0.05 5.28,2.50667 10.46333,5.17 15.55,7.99 17.09333,9.49333 34.16667,19.04667 51.22,28.66 z"
       style="fill:#ff3c4a;fill-opacity:1"
       sodipodi:nodetypes="cccccccccccccccccccccccccccccccccccccccccccccccccccccccccccccccccccccccccccccccscccccccccccccccc" />
    <path
       id="path117"
       d="m 490.27,445.76 c 11.49,6.03 24.21,13.67 34.21,18.57 q 2.22,1.09 5.31,0.58 l -0.16,60.14 0.12,32.42 q 0.01,1.62 -1.61,1.6 L 523.49,559 q -7.6,-1.15 -11.4,-3.35 c -14.78,-8.56 -25.24,-13.84 -37.78,-20.94 -11.33,-6.42 -23.03,-12.63 -34.29,-19.46 l 0.53,-0.59 a 0.52,0.52 0 0 0 -0.25,-0.85 q -0.37,-0.09 -0.73,-0.34 a 0.3,0.3 0 0 1 0,-0.5 q 0.24,-0.17 0.47,0.11 0.09,0.11 0.09,-0.03 0,-0.17 0.04,-0.31 0.06,-0.16 0.22,-0.23 2.3,-0.94 4.82,-0.57 0.51,0.08 0.5,-0.44 c -0.06,-2.26 0.32,-3.87 2.09,-5.51 1.67,-1.55 3.17,-3.16 4.89,-4.67 0.92,-0.81 1.28,-1.81 2.18,-2.63 1.01,-0.93 1.56,-1.94 2.67,-2.77 q 1.58,-1.19 2.91,-2.65 0.34,-0.37 0.84,-0.32 0.5,0.05 0.63,-0.48 a 0.95,0.94 84.4 0 1 0.5,-0.61 q 1.34,-0.67 1.92,-2.02 0.14,-0.33 0.43,-0.13 0.19,0.14 0.38,0.11 0.11,-0.02 0.2,-0.15 2.27,-3.13 4.93,-5.91 0.33,-0.34 0.67,-0.01 l 0.23,0.21 q 0.14,0.13 0.31,0.07 0.91,-0.3 0.93,-1.32 0.01,-0.48 0.42,-0.72 l 2.95,-1.74 q 0.37,-0.22 0.43,-0.64 0.25,-1.74 1.57,-2.86 0.36,-0.31 0.37,-0.8 0.01,-0.75 0.61,-1.19 0.34,-0.25 0.48,-0.64 0.37,-1.01 1.54,-2.34 0.99,-1.13 2.55,-4.35 c 1.76,-3.63 5.59,-7.48 4.2,-11.85 q -0.14,-0.46 0.06,-0.9 1.68,-3.57 2.26,-5.42 0.38,-1.2 0.41,-3.5 z m -1.6,-0.94 1.6,0.94 q -0.03,2.3 -0.41,3.5 -0.58,1.85 -2.26,5.42 -0.2,0.44 -0.06,0.9 c 1.39,4.37 -2.44,8.22 -4.2,11.85 q -1.56,3.22 -2.55,4.35 -1.17,1.33 -1.54,2.34 -0.14,0.39 -0.48,0.64 -0.6,0.44 -0.61,1.19 -0.01,0.49 -0.37,0.8 -1.32,1.12 -1.57,2.86 -0.06,0.42 -0.43,0.64 l -2.95,1.74 q -0.41,0.24 -0.42,0.72 -0.02,1.02 -0.93,1.32 -0.17,0.06 -0.31,-0.07 l -0.23,-0.21 q -0.34,-0.33 -0.67,0.01 -2.66,2.78 -4.93,5.91 -0.09,0.13 -0.2,0.15 -0.19,0.03 -0.38,-0.11 -0.29,-0.2 -0.43,0.13 -0.58,1.35 -1.92,2.02 a 0.95,0.94 84.4 0 0 -0.5,0.61 q -0.13,0.53 -0.63,0.48 -0.5,-0.05 -0.84,0.32 -1.33,1.46 -2.91,2.65 c -1.11,0.83 -1.66,1.84 -2.67,2.77 -0.9,0.82 -1.26,1.82 -2.18,2.63 -1.72,1.51 -3.22,3.12 -4.89,4.67 -1.77,1.64 -2.15,3.25 -2.09,5.51 q 0.01,0.52 -0.5,0.44 -2.52,-0.37 -4.82,0.57 -0.16,0.07 -0.22,0.23 -0.04,0.14 -0.04,0.31 0,0.14 -0.09,0.03 -0.23,-0.28 -0.47,-0.11 a 0.3,0.3 0 0 0 0,0.5 q 0.36,0.25 0.73,0.34 a 0.52,0.52 0 0 1 0.25,0.85 l -0.53,0.59 -6.28,-3.4 c -7.8,-4.16 -13.66,-7.34 -16.6,-15.35 q -1.41,-3.84 -1.38,-13.17 0.05,-14.49 -0.05,-29.35 0.09,-15.33 0.08,-31.23 c -0.01,-9.25 6.29,-14.27 15.12,-9.44 q 28.89,15.79 57.76,31.51 z"
       style="fill:url(#linearGradient139);fill-opacity:1" />
    <g
       id="g1">
      <path
         fill="#8d1132"
         d="m 641.19,368.13 c 1.07333,1.78 1.49333,3.91333 1.26,6.4 -0.85,7.77 -4.12,12.2 -10.73,15.28 L 589.6858,413.71063 589.73,389.78 c 13.44667,-7.68 26.87333,-15.34667 40.28,-23 4.11333,-2.35333 7.51,-1.53333 10.19,2.46 0.22667,0.33333 0.44333,0.33 0.65,-0.01 0.16,-0.24667 0.27333,-0.61333 0.34,-1.1 z"
         id="path110"
         sodipodi:nodetypes="ccccccccc" />
      <path
         fill="#8d1132"
         d="m 569.91,400.28 0.22,24.77495 c -7.26,4.12667 -14.67333,8.14065 -22.24,12.51398 -5.05,2.91 -11.97,7.04104 -17.94,6.42104 L 530.24,421.71 c 0.007,-0.33333 0.16333,-0.56667 0.47,-0.7 1.89,-0.85 3.9,-1.6 5.7,-2.61 10.78,-6.04 21.94667,-12.08 33.5,-18.12 z"
         id="path113"
         sodipodi:nodetypes="cccccccc" />
      <path
         id="path118"
         d="m 642.85,448.72 q -0.06,19.36 -0.11,39.78 c -0.02,10.88 -5.65,17.36 -14.87,22.16 -14.52,7.55 -28.58,15.83 -43.06,23.44 q -19.43,10.19 -38.6,20.86 -10.13,5.63 -22.72,4.04 l 4.65,0.07 q 1.62,0.02 1.61,-1.6 l -0.12,-32.42 0.3,-10.95 q 0.01,-0.48 0.27,-0.89 0.19,-0.31 0.19,-0.63 -0.01,-0.37 -0.13,-0.71 -0.42,-1.2 0.21,-2.25 0.13,-0.22 0.38,-0.26 0.12,-0.02 0.25,-0.07 0.14,-0.05 0.22,-0.17 0.11,-0.19 0.14,-0.39 0.01,-0.02 0.29,-0.36 0.26,-0.3 0.51,-0.19 0.66,0.29 1.09,-0.29 2.51,-3.45 6.6,-4.82 0.56,-0.19 0.42,-0.76 -0.29,-1.21 0.75,-1.45 0.47,-0.11 0.76,-0.5 0.25,-0.33 0.37,-0.7 0.16,-0.47 0.55,-0.75 c 3.26,-2.33 5.51,-3.36 8.23,-5.17 5.85,-3.87 12.28,-7.4 17.46,-9.75 q 7.8,-3.55 11.86,-5.89 6.28,-3.61 12.51,-7.3 c 1.37,-0.82 3.81,-1.88 5.54,-3.25 q 0.27,-0.22 0.49,-0.23 0.15,-0.01 0.29,0.04 0.27,0.09 0.05,0.27 l -0.65,0.53 q -0.22,0.18 -0.02,0.37 l 0.3,0.3 a 0.67,0.67 0 0 0 0.81,0.12 l 11.61,-6.2 a 0.48,0.48 0 0 1 0.71,0.42 q 0,0.41 0.41,0.51 a 0.61,0.61 0 0 0 0.4,-0.06 l 5.11,-2.78 q 0.37,-0.2 0.52,-0.6 l 0.18,-0.5 q 0.18,-0.48 0.65,-0.7 4.8,-2.19 9.48,-4.64 3.24,-1.69 6.99,-2.97 3.74,-1.27 7.12,-2.71 z m 0,0 q -3.38,1.44 -7.12,2.71 -3.75,1.28 -6.99,2.97 -4.68,2.45 -9.48,4.64 -0.47,0.22 -0.65,0.7 l -0.18,0.5 q -0.15,0.4 -0.52,0.6 l -5.11,2.78 a 0.61,0.61 0 0 1 -0.4,0.06 q -0.41,-0.1 -0.41,-0.51 a 0.48,0.48 0 0 0 -0.71,-0.42 l -11.61,6.2 a 0.67,0.67 0 0 1 -0.81,-0.12 l -0.3,-0.3 q -0.2,-0.19 0.02,-0.37 l 0.65,-0.53 q 0.22,-0.18 -0.05,-0.27 -0.14,-0.05 -0.29,-0.04 -0.22,0.01 -0.49,0.23 c -1.73,1.37 -4.17,2.43 -5.54,3.25 q -6.23,3.69 -12.51,7.3 -4.06,2.34 -11.86,5.89 c -5.18,2.35 -11.61,5.88 -17.46,9.75 -2.72,1.81 -4.97,2.84 -8.23,5.17 q -0.39,0.28 -0.55,0.75 -0.12,0.37 -0.37,0.7 -0.29,0.39 -0.76,0.5 -1.04,0.24 -0.75,1.45 0.14,0.57 -0.42,0.76 -4.09,1.37 -6.6,4.82 -0.43,0.58 -1.09,0.29 -0.25,-0.11 -0.51,0.19 -0.28,0.34 -0.29,0.36 -0.03,0.2 -0.14,0.39 -0.08,0.12 -0.22,0.17 -0.13,0.05 -0.25,0.07 -0.25,0.04 -0.38,0.26 -0.63,1.05 -0.21,2.25 0.12,0.34 0.13,0.71 0,0.32 -0.19,0.63 -0.26,0.41 -0.27,0.89 l -0.3,10.95 0.16,-60.14 q 7.89,-2.33 18.77,-8.12 14.33,-7.64 28.51,-15.58 c 16.66,-9.33 33.34,-18.19 49.94,-27.41 8.91,-4.94 15.87,-1.92 15.95,8.64 q 0.1,12.71 -0.11,26.28 z"
         style="fill:url(#linearGradient141);fill-opacity:1" />
    </g>
  </g>
  <path
     style="font-weight:bold;font-size:183.484px;font-family:Sarabun;-inkscape-font-specification:'Sarabun, Bold';fill:#15171f;fill-opacity:0.941176;stroke-width:23.3887"
     d="m 628.27915,381.69173 q -22.17241,0 -40.13488,-8.98122 -17.6818,-8.98124 -28.90835,-25.82105 L 582.531,324.43637 q 9.26189,10.94589 22.45308,17.96248 13.19119,7.01659 24.69839,7.01659 12.91054,0 20.76911,-5.89395 7.85858,-5.89393 7.85858,-15.4365 0,-7.01658 -2.52598,-11.5072 -2.52596,-4.49062 -9.54255,-8.98123 -7.01659,-4.77129 -23.01442,-12.62986 -21.04976,-10.38456 -33.11829,-19.36578 -12.06853,-8.98124 -17.96248,-19.36579 -5.61327,-10.66521 -5.61327,-24.69839 0,-15.4365 8.13925,-27.22437 8.13923,-11.78787 23.01441,-18.24313 14.87517,-6.45526 34.24095,-6.45526 21.33044,0 37.60892,8.13925 16.55914,8.13923 24.13706,22.45307 l -25.54038,19.08513 q -14.03317,-17.40114 -34.52161,-17.40114 -12.91054,0 -19.92712,5.05194 -7.01659,5.05194 -7.01659,14.31383 0,5.61328 3.36796,10.1039 3.64863,4.49061 12.91054,9.82323 9.26189,5.3326 27.78568,14.03318 17.96247,8.4199 28.06636,16.83981 10.38455,8.41991 14.87516,18.80445 4.49063,10.38455 4.49063,24.6984 0,16.83982 -8.70058,29.75033 -8.41991,12.62986 -24.41773,19.64645 -15.71716,6.73592 -36.76693,6.73592 z m 91.21583,-105.81015 q 0,-28.06636 -1.12264,-37.32825 h 31.4343 q 1.40332,11.22654 1.40332,24.41773 h 0.56133 q 4.49061,-12.62986 16.27856,-19.92712 11.78783,-7.29725 27.50498,-7.29725 15.15578,0 25.82101,6.73592 10.66523,6.45527 14.31386,17.96247 5.61331,-11.5072 17.12045,-17.96247 11.50729,-6.73592 25.821,-6.73592 23.29512,0 36.48639,15.15582 13.4718,14.87519 13.4718,41.25755 v 86.72503 h -35.64432 v -82.79573 q 0,-14.87517 -6.45522,-23.01442 -6.45521,-8.41991 -17.68181,-8.41991 -12.34921,0 -19.92717,8.70057 -7.29713,8.41991 -7.29713,23.01441 v 82.51508 H 806.22006 V 297.212 q 0,-15.43649 -6.17468,-23.8564 -6.17452,-8.70057 -17.40113,-8.70057 -12.06851,0 -19.92701,9.2619 -7.57798,8.98124 -7.57798,23.29507 v 81.67309 h -35.64428 z m 280.38316,105.81015 q -13.75249,0 -24.69841,-5.61327 -10.94592,-5.89393 -17.12044,-15.99781 -6.17468,-10.38456 -6.17468,-23.01442 0,-21.6111 17.12044,-33.1183 17.1206,-11.50721 48.83545,-11.50721 h 21.8918 v -5.89393 q 0,-11.22654 -6.7359,-17.12047 -6.4552,-6.1746 -18.5239,-6.1746 -12.6297,0 -24.13699,4.49061 -11.50714,4.49062 -18.80442,12.3492 l -15.71715,-20.76911 q 11.50714,-10.94587 27.22429,-17.12047 15.71715,-6.45526 32.55707,-6.45526 28.0663,0 44.0642,13.19119 15.9978,13.19118 15.9978,36.48626 v 63.9913 q 0,6.45525 0.8419,15.15582 1.1226,8.70058 2.5261,14.31383 h -31.715 q -1.684,-3.64862 -2.5261,-7.01657 -0.8419,-3.64864 -1.4032,-9.82322 h -0.5614 q -15.9979,19.64643 -42.94146,19.64643 z m 8.70056,-26.9437 q 13.4718,0 22.1724,-6.73591 8.9812,-7.01659 8.9812,-17.68182 v -14.03318 h -23.0144 q -14.3139,0 -22.17238,5.33262 -7.57796,5.33261 -7.57796,15.43649 0,8.41991 5.6133,13.19119 5.89399,4.49061 15.99784,4.49061 z m 98.5126,-81.95375 q 0,-23.8564 -0.8419,-34.24095 h 33.9602 q 1.1228,10.94587 1.1228,24.69839 v 2.80663 h 1.1226 q 5.3326,-13.75252 18.8044,-21.89175 13.4719,-8.41991 30.8731,-8.41991 3.3679,0 8.4198,0.84199 v 28.34701 q -1.1226,-0.56131 -6.7359,-0.56131 -13.4719,0 -25.2597,7.29724 -11.5072,7.29725 -18.5238,19.64645 -7.0166,12.06853 -7.0166,26.10171 v 61.46531 h -35.925 z m 170.9239,108.89745 q -21.611,0 -33.6795,-11.78786 -12.0685,-11.78787 -12.0685,-33.1183 v -71.5692 h -25.5405 v -26.66304 h 25.5405 v -36.20561 l 34.8022,-10.10388 h 1.1226 v 46.30949 h 40.6963 v 26.66304 h -40.6963 v 66.23659 q 0,12.06853 5.6133,17.6818 5.6133,5.61327 17.1205,5.61327 10.9459,0 20.4884,-3.36796 l 1.6839,24.41773 q -12.6297,5.89393 -35.0829,5.89393 z"
     id="text2"
     aria-label="Smart" />
  <path
     style="font-weight:bold;font-size:183.484px;font-family:Sarabun;-inkscape-font-specification:'Sarabun, Bold';fill:#15171f;fill-opacity:0.941176;stroke-width:23.3887"
     d="m 1389.7312,386.18239 q -22.1725,0 -40.135,-8.98124 -17.6817,-8.98124 -28.9083,-25.82105 l 23.2951,-22.45309 q 9.2618,10.94589 22.4531,17.96248 13.1911,7.01659 24.6984,7.01659 12.9104,0 20.7691,-5.89395 7.8585,-5.89393 7.8585,-15.43649 0,-7.01659 -2.5259,-11.5072 -2.5261,-4.49063 -9.5427,-8.98124 -7.0166,-4.77128 -23.0144,-12.62986 -21.0498,-10.38456 -33.1183,-19.36578 -12.0685,-8.98124 -17.9623,-19.36579 -5.6133,-10.66521 -5.6133,-24.69839 0,-15.4365 8.1392,-27.22437 8.1391,-11.78787 23.0144,-18.24313 14.8752,-6.45526 34.2409,-6.45526 21.3304,0 37.609,8.13925 16.5592,8.13923 24.137,22.45308 l -25.5403,19.08512 q -14.0332,-17.40114 -34.5216,-17.40114 -12.9106,0 -19.9272,5.05194 -7.0166,5.05194 -7.0166,14.31384 0,5.61327 3.368,10.10389 3.6486,4.49061 12.9106,9.82323 9.2618,5.3326 27.7856,14.03318 17.9625,8.4199 28.0664,16.83981 10.3845,8.41991 14.8751,18.80446 4.4907,10.38454 4.4907,24.69839 0,16.83982 -8.7006,29.75034 -8.42,12.62986 -24.4177,19.64645 -15.7171,6.73593 -36.7669,6.73593 z m 152.4004,0 q -21.6111,0 -33.6796,-11.78788 -12.0685,-11.78787 -12.0685,-33.11829 v -71.56921 h -25.5405 v -26.66304 h 25.5405 v -36.20561 l 34.8022,-10.10388 h 1.1226 v 46.30949 h 40.6963 v 26.66304 h -40.6963 v 66.23659 q 0,12.06853 5.6133,17.6818 5.6133,5.61328 17.1205,5.61328 10.9459,0 20.4885,-3.36797 l 1.684,24.41773 q -12.6299,5.89395 -35.083,5.89395 z m 115.9139,0 q -33.9603,0 -53.0454,-19.3658 -19.0851,-19.36579 -19.0851,-53.60673 0,-34.24096 19.0851,-53.60675 19.0851,-19.36578 53.0454,-19.36578 33.9602,0 53.0453,19.36578 19.3658,19.36579 19.3658,53.60675 0,34.24094 -19.3658,53.60673 -19.0851,19.3658 -53.0453,19.3658 z m 0,-26.66304 q 17.1205,0 26.9437,-12.34921 9.8233,-12.3492 9.8233,-33.96028 0,-21.6111 -9.8233,-33.9603 -9.8232,-12.34919 -26.9437,-12.34919 -17.1205,0 -26.9437,12.34919 -9.5426,12.3492 -9.5426,33.9603 0,21.61108 9.5426,33.96028 9.8232,12.34921 26.9437,12.34921 z m 158.8557,26.66304 q -32.557,0 -51.3615,-19.3658 -18.5237,-19.64645 -18.5237,-53.60673 0,-34.24096 18.5237,-53.60675 18.8045,-19.36578 51.3615,-19.36578 19.6465,0 34.2409,7.29725 14.5946,7.29726 22.4531,20.76911 l -21.611,18.80446 q -5.3327,-9.26191 -14.3139,-14.31385 -8.7006,-5.05194 -19.0851,-5.05194 -16.8399,0 -26.3824,12.06853 -9.5426,12.06853 -9.5426,33.39897 0,21.33042 9.5426,33.39895 9.5425,12.06854 26.3824,12.06854 10.3845,0 19.0851,-5.05195 8.7006,-5.33259 14.3139,-14.31383 l 21.611,18.80446 q -7.8585,13.47185 -22.4531,20.76909 -14.5944,7.29727 -34.2409,7.29727 z m 168.9595,-2.80664 -41.5381,-65.39462 -16.8398,16.55915 v 48.83547 h -35.925 V 175.12338 h 35.925 v 116.47538 l 49.3968,-48.55479 h 44.0641 l -51.9227,50.8001 57.2553,89.53168 z"
     id="text4"
     aria-label="Stock" />
  <path
     style="font-weight:bold;font-size:183.484px;font-family:Sarabun;-inkscape-font-specification:'Sarabun, Bold';fill:#15171f;fill-opacity:0.941176;stroke-width:23.3887"
     d="m 2076.163,221.99418 q -10.3845,0 -16.559,-5.61327 -6.1747,-5.89393 -6.1747,-15.43648 0,-9.54256 6.1747,-15.15584 6.1745,-5.89392 16.559,-5.89392 10.3846,0 16.5593,5.89392 6.4552,5.61328 6.4552,15.15584 0,9.54255 -6.1746,15.43648 -6.1746,5.61327 -16.8399,5.61327 z m -17.6818,16.2785 h 35.6443 v 140.33177 h -35.6443 z m 130.7895,143.13841 q -21.611,0 -33.6797,-11.78786 -12.0685,-11.78787 -12.0685,-33.11831 v -71.5692 h -25.5403 v -26.66304 h 25.5403 v -36.2056 l 34.8023,-10.10388 h 1.1227 v 46.30948 h 40.6963 v 26.66304 h -40.6963 v 66.2366 q 0,12.06853 5.6133,17.6818 5.6132,5.61327 17.1205,5.61327 10.9459,0 20.4884,-3.36796 l 1.6839,24.41773 q -12.6299,5.89393 -35.0829,5.89393 z"
     id="text5"
     aria-label="it" />
  <path
     fill="#06bbff"
     d="m 2109.6847,205.64834 q -3.0613,9.99763 -14.4745,18.68588 c -17.8895,13.62507 -44.1134,1.41557 -51.616,-17.94266 -5.804,-20.72079 5.3438,-39.88437 25.8522,-45.52909 13.1827,-3.62747 23.5166,1.39792 32.3287,10.65238 8.9182,9.37828 11.3601,21.46393 7.9096,34.13349 z"
     id="path5"
     style="fill:#ffffff;fill-opacity:0.941176;stroke-width:1.7695" />
</svg>
