<?xml version="1.0" encoding="UTF-8" standalone="no"?>
<svg
   version="1.1"
   viewBox="0 0 891.52893 915.43683"
   id="svg131"
   sodipodi:docname="smartstockit-icon-box.svg"
   inkscape:version="1.3 (0e150ed6c4, 2023-07-21)"
   width="891.52893"
   height="915.43683"
   xmlns:inkscape="http://www.inkscape.org/namespaces/inkscape"
   xmlns:sodipodi="http://sodipodi.sourceforge.net/DTD/sodipodi-0.dtd"
   xmlns:xlink="http://www.w3.org/1999/xlink"
   xmlns="http://www.w3.org/2000/svg"
   xmlns:svg="http://www.w3.org/2000/svg">
  <defs
     id="defs131">
    <linearGradient
       id="linearGradient140"
       inkscape:collect="always">
      <stop
         style="stop-color:#840d25;stop-opacity:1;"
         offset="0"
         id="stop140" />
      <stop
         style="stop-color:#840d25;stop-opacity:0.58122742;"
         offset="1"
         id="stop141" />
    </linearGradient>
    <linearGradient
       id="linearGradient138"
       inkscape:collect="always">
      <stop
         style="stop-color:#d4163c;stop-opacity:1;"
         offset="0"
         id="stop138" />
      <stop
         style="stop-color:#840d25;stop-opacity:1;"
         offset="1"
         id="stop139" />
    </linearGradient>
    <linearGradient
       id="linearGradient135"
       inkscape:collect="always">
      <stop
         style="stop-color:#0c1425;stop-opacity:1;"
         offset="0"
         id="stop135" />
      <stop
         style="stop-color:#1d365b;stop-opacity:1;"
         offset="1"
         id="stop136" />
    </linearGradient>
    <linearGradient
       id="linearGradient133"
       inkscape:collect="always">
      <stop
         style="stop-color:#0e192a;stop-opacity:1;"
         offset="0"
         id="stop133" />
      <stop
         style="stop-color:#3a5f8a;stop-opacity:1;"
         offset="1"
         id="stop134" />
    </linearGradient>
    <linearGradient
       inkscape:collect="always"
       xlink:href="#linearGradient133"
       id="linearGradient134"
       x1="553.08936"
       y1="528.70624"
       x2="251.85249"
       y2="216.97641"
       gradientUnits="userSpaceOnUse"
       gradientTransform="matrix(1.6137099,0,0,1.6137099,-407.41379,-354.61906)" />
    <linearGradient
       inkscape:collect="always"
       xlink:href="#linearGradient135"
       id="linearGradient136"
       x1="567.61438"
       y1="593.31372"
       x2="331.78928"
       y2="278.16971"
       gradientUnits="userSpaceOnUse"
       gradientTransform="matrix(1.6137099,0,0,1.6137099,-407.41379,-354.61906)" />
    <linearGradient
       inkscape:collect="always"
       xlink:href="#linearGradient138"
       id="linearGradient139"
       x1="434.84589"
       y1="449.45285"
       x2="529.17267"
       y2="522.90997"
       gradientUnits="userSpaceOnUse" />
    <linearGradient
       inkscape:collect="always"
       xlink:href="#linearGradient140"
       id="linearGradient141"
       x1="580.89764"
       y1="439.12253"
       x2="616.44891"
       y2="516.28339"
       gradientUnits="userSpaceOnUse" />
  </defs>
  <sodipodi:namedview
     id="namedview131"
     pagecolor="#505050"
     bordercolor="#eeeeee"
     borderopacity="1"
     inkscape:showpageshadow="0"
     inkscape:pageopacity="0"
     inkscape:pagecheckerboard="0"
     inkscape:deskcolor="#505050"
     showgrid="false"
     inkscape:zoom="0.80999635"
     inkscape:cx="46.913792"
     inkscape:cy="268.51973"
     inkscape:window-width="3440"
     inkscape:window-height="1369"
     inkscape:window-x="-8"
     inkscape:window-y="-8"
     inkscape:window-maximized="1"
     inkscape:current-layer="svg131" />
  <rect
     style="fill:url(#linearGradient136);fill-opacity:1;stroke-width:1.61371"
     id="rect131"
     width="891.52893"
     height="915.43585"
     x="0"
     y="0.00026547437"
     ry="182.29025"
     inkscape:label="Fundo"
     inkscape:export-filename="smartstockit-icon.png"
     inkscape:export-xdpi="96"
     inkscape:export-ydpi="96" />
  <path
     id="rect132"
     style="fill:url(#linearGradient134);fill-opacity:1;stroke-width:1.56752"
     d="M 182.29001,0 C 81.301322,0 6.8149756e-4,81.300628 6.8149756e-4,182.28934 v 550.85499 c 0,100.98871 81.30064050244,182.2925 182.28932850244,182.2925 H 709.2388 c 100.98869,0 182.28933,-81.30379 182.28933,-182.2925 V 182.28934 C 891.52813,81.300628 810.22749,0 709.2388,0 Z m 5.00818,14.942566 h 516.93243 c 97.69201,0 176.34192,78.646762 176.34192,176.338784 v 532.87412 c 0,97.69201 -78.64991,176.33878 -176.34192,176.33878 H 187.29819 c -97.692008,0 -176.34192,-78.64677 -176.34192,-176.33878 V 191.28135 c 0,-97.692022 78.649912,-176.338784 176.34192,-176.338784 z"
     inkscape:label="Borda" />
  <g
     id="g2"
     transform="matrix(2.7006323,0,0,2.7006323,-983.81828,-706.16792)">
    <path
       fill="#ff5f59"
       d="m 555.18,314.49 17.51,9.87 c 0.85625,0.48478 0.81585,1.73168 -0.07,2.16 -2.77882,1.31708 -33.78117,18.668 -41.27,22.75 -1.78,0.98 -3.32,0.99 -5.27,1.06 l -30.82,-16.92 c -4.5,-1.97333 -8.67333,-4.73333 -12.52,-8.28 9.55333,-5.66667 19.15333,-11.16333 28.8,-16.49 6.00667,-3.31333 10.43,-5.23333 13.27,-5.76 10.74,-1.97 21.55,6.41 30.37,11.61 z"
       id="path103"
       style="fill:#ff3c4a;fill-opacity:1"
       sodipodi:nodetypes="cccccccccc" />
    <path
       fill="#ff3c4a"
       d="m 641.19,368.13 q -0.1,0.73 -0.34,1.1 -0.31,0.51 -0.65,0.01 -4.02,-5.99 -10.19,-2.46 -20.11,11.48 -40.28,23 -1.84,-1.91 -4.25,-3.28 -17.64,-10.04 -35.98,-19.98 a 1.26,1.25 45.1 0 1 0,-2.21 q 21.06,-11.19 42.34,-22.65 c 2.58,-1.39 5.57,-3.88 8.57,-2.28 q 15.9,8.49 31.66,17.26 6.13,3.42 9.12,11.49 z"
       id="path107" />
    <path
       id="path112"
       d="m 526.89,376.15 43.02,24.13 c -11.55333,6.04 -22.72,12.08 -33.5,18.12 -1.8,1.01 -3.81,1.76 -5.7,2.61 -0.30667,0.13333 -0.46333,0.36667 -0.47,0.7 l -0.29,22.33454 c -4.79333,0.21333 -9.62404,-3.32314 -13.83737,-5.58981 L 454.98,404.52 c -0.82667,-2.28 -2.09667,-3.50333 -3.81,-3.67 -0.30667,-0.0333 -0.56667,-0.16333 -0.78,-0.39 -1.76,-1.86 -4.07,-2.4 -4.03,-5.77 0.01,-0.67 0.55,-1.61 0.13,-2.54 -0.11751,-0.26141 -0.1591,-0.5491 -0.12,-0.83 0.46,-3.7 0.36,-6.63667 -0.3,-8.81 -0.54667,-1.81333 -0.66667,-3.56333 -0.36,-5.25 0.0733,-0.4 0.29,-0.50667 0.65,-0.32 9.06667,4.7 17.92,9.61 26.56,14.73 13.01,7.7 26.04,14.02 39.03,21.09 0.63347,0.34599 1.42448,0.0523 1.67,-0.62 l 0.81,-2.17 c 0.0907,-0.23992 0.0977,-0.50411 0.02,-0.75 -0.23333,-0.72 -0.0533,-1.22 0.54,-1.5 0.32667,-0.15333 0.52,-0.41 0.58,-0.77 0.16,-0.89333 0.54667,-1.68667 1.16,-2.38 0.22667,-0.26 0.27,-0.54667 0.13,-0.86 -0.19333,-0.42667 -0.28,-0.87667 -0.26,-1.35 0.0262,-0.52549 0.12099,-0.9607 0.27,-1.24 0.08,-0.14667 0.20333,-0.23667 0.37,-0.27 0.33333,-0.06 0.53667,-0.25667 0.61,-0.59 0.0733,-0.34667 -0.13667,-0.65 -0.63,-0.91 -0.12,-0.0667 -0.11333,-0.12333 0.02,-0.17 l 0.53,-0.19 c 0.06,-0.0267 0.0867,-0.07 0.08,-0.13 -0.08,-1.34667 0.21667,-2.61 0.89,-3.79 0.16667,-0.29333 0.23,-0.60667 0.19,-0.94 -0.0467,-0.33333 -0.03,-0.65333 0.05,-0.96 0.0533,-0.23333 0.20667,-0.46667 0.46,-0.7 1.13,-1.06 1.69,-2.46 2.69,-3.51 1.04,-1.08667 2.02333,-2.23 2.95,-3.43 0.17055,-0.22281 0.28086,-0.49168 0.32,-0.78 0.12,-0.94 0.40333,-1.81333 0.85,-2.62 0.10667,-0.19333 0.0533,-0.28 -0.16,-0.26 -0.16,0.0133 -0.31667,0.0133 -0.47,0 -0.12667,-0.0133 -0.16333,-0.0767 -0.11,-0.19 l 1.43,-3.04 c 0.14667,-0.31333 0.19667,-0.64 0.15,-0.98 z m -1.16,-0.56 1.16,0.56 0.2,1.51 c 0.0467,0.34 -0.003,0.66667 -0.15,0.98 l -1.43,3.04 c -0.0533,0.11333 -0.0167,0.17667 0.11,0.19 0.15333,0.0133 0.31,0.0133 0.47,0 0.21333,-0.02 0.26667,0.0667 0.16,0.26 -0.44667,0.80667 -0.73,1.68 -0.85,2.62 -0.0391,0.28832 -0.14945,0.55719 -0.32,0.78 -0.92667,1.2 -1.91,2.34333 -2.95,3.43 -1,1.05 -1.56,2.45 -2.69,3.51 -0.25333,0.23333 -0.40667,0.46667 -0.46,0.7 -0.08,0.30667 -0.0967,0.62667 -0.05,0.96 0.04,0.33333 -0.0233,0.64667 -0.19,0.94 -0.67333,1.18 -0.97,2.44333 -0.89,3.79 0.007,0.06 -0.02,0.10333 -0.08,0.13 l -0.53,0.19 c -0.13333,0.0467 -0.14,0.10333 -0.02,0.17 0.49333,0.26 0.70333,0.56333 0.63,0.91 -0.0733,0.33333 -0.27667,0.53 -0.61,0.59 -0.16667,0.0333 -0.29,0.12333 -0.37,0.27 -0.14901,0.2793 -0.24377,0.71451 -0.27,1.24 -0.02,0.47333 0.0667,0.92333 0.26,1.35 0.14,0.31333 0.0967,0.6 -0.13,0.86 -0.61333,0.69333 -1,1.48667 -1.16,2.38 -0.06,0.36 -0.25333,0.61667 -0.58,0.77 -0.59333,0.28 -0.77333,0.78 -0.54,1.5 0.0777,0.24589 0.0707,0.51008 -0.02,0.75 l -0.81,2.17 c -0.24552,0.67232 -1.03653,0.96599 -1.67,0.62 -12.99,-7.07 -26.02,-13.39 -39.03,-21.09 -8.64,-5.12 -17.49333,-10.03 -26.56,-14.73 -0.36,-0.18667 -0.57667,-0.08 -0.65,0.32 -0.30667,1.68667 -0.18667,3.43667 0.36,5.25 0.66,2.17333 0.76,5.11 0.3,8.81 -0.0391,0.2809 0.002,0.56859 0.12,0.83 0.42,0.93 -0.12,1.87 -0.13,2.54 -0.04,3.37 2.27,3.91 4.03,5.77 0.21333,0.22667 0.47333,0.35667 0.78,0.39 1.71333,0.16667 2.98333,1.39 3.81,3.67 -10.07333,-5.68667 -20.23333,-11.19333 -30.48,-16.52 -3.44667,-1.79333 -6.10333,-4.96333 -7.97,-9.51 -1.71333,-10.86667 2.03,-18.80333 11.23,-23.81 5.05333,-2.74667 13.89,-7.44667 26.51,-14.1 1.45333,-0.76667 2.68667,-1.33 3.7,-1.69 0.32053,-0.11538 0.67664,-0.0974 0.99,0.05 5.28,2.50667 10.46333,5.17 15.55,7.99 17.09333,9.49333 34.16667,19.04667 51.22,28.66 z"
       style="fill:#ff3c4a;fill-opacity:1"
       sodipodi:nodetypes="cccccccccccccccccccccccccccccccccccccccccccccccccccccccccccccccccccccccccccccccscccccccccccccccc" />
    <path
       id="path117"
       d="m 490.27,445.76 c 11.49,6.03 24.21,13.67 34.21,18.57 q 2.22,1.09 5.31,0.58 l -0.16,60.14 0.12,32.42 q 0.01,1.62 -1.61,1.6 L 523.49,559 q -7.6,-1.15 -11.4,-3.35 c -14.78,-8.56 -25.24,-13.84 -37.78,-20.94 -11.33,-6.42 -23.03,-12.63 -34.29,-19.46 l 0.53,-0.59 a 0.52,0.52 0 0 0 -0.25,-0.85 q -0.37,-0.09 -0.73,-0.34 a 0.3,0.3 0 0 1 0,-0.5 q 0.24,-0.17 0.47,0.11 0.09,0.11 0.09,-0.03 0,-0.17 0.04,-0.31 0.06,-0.16 0.22,-0.23 2.3,-0.94 4.82,-0.57 0.51,0.08 0.5,-0.44 c -0.06,-2.26 0.32,-3.87 2.09,-5.51 1.67,-1.55 3.17,-3.16 4.89,-4.67 0.92,-0.81 1.28,-1.81 2.18,-2.63 1.01,-0.93 1.56,-1.94 2.67,-2.77 q 1.58,-1.19 2.91,-2.65 0.34,-0.37 0.84,-0.32 0.5,0.05 0.63,-0.48 a 0.95,0.94 84.4 0 1 0.5,-0.61 q 1.34,-0.67 1.92,-2.02 0.14,-0.33 0.43,-0.13 0.19,0.14 0.38,0.11 0.11,-0.02 0.2,-0.15 2.27,-3.13 4.93,-5.91 0.33,-0.34 0.67,-0.01 l 0.23,0.21 q 0.14,0.13 0.31,0.07 0.91,-0.3 0.93,-1.32 0.01,-0.48 0.42,-0.72 l 2.95,-1.74 q 0.37,-0.22 0.43,-0.64 0.25,-1.74 1.57,-2.86 0.36,-0.31 0.37,-0.8 0.01,-0.75 0.61,-1.19 0.34,-0.25 0.48,-0.64 0.37,-1.01 1.54,-2.34 0.99,-1.13 2.55,-4.35 c 1.76,-3.63 5.59,-7.48 4.2,-11.85 q -0.14,-0.46 0.06,-0.9 1.68,-3.57 2.26,-5.42 0.38,-1.2 0.41,-3.5 z m -1.6,-0.94 1.6,0.94 q -0.03,2.3 -0.41,3.5 -0.58,1.85 -2.26,5.42 -0.2,0.44 -0.06,0.9 c 1.39,4.37 -2.44,8.22 -4.2,11.85 q -1.56,3.22 -2.55,4.35 -1.17,1.33 -1.54,2.34 -0.14,0.39 -0.48,0.64 -0.6,0.44 -0.61,1.19 -0.01,0.49 -0.37,0.8 -1.32,1.12 -1.57,2.86 -0.06,0.42 -0.43,0.64 l -2.95,1.74 q -0.41,0.24 -0.42,0.72 -0.02,1.02 -0.93,1.32 -0.17,0.06 -0.31,-0.07 l -0.23,-0.21 q -0.34,-0.33 -0.67,0.01 -2.66,2.78 -4.93,5.91 -0.09,0.13 -0.2,0.15 -0.19,0.03 -0.38,-0.11 -0.29,-0.2 -0.43,0.13 -0.58,1.35 -1.92,2.02 a 0.95,0.94 84.4 0 0 -0.5,0.61 q -0.13,0.53 -0.63,0.48 -0.5,-0.05 -0.84,0.32 -1.33,1.46 -2.91,2.65 c -1.11,0.83 -1.66,1.84 -2.67,2.77 -0.9,0.82 -1.26,1.82 -2.18,2.63 -1.72,1.51 -3.22,3.12 -4.89,4.67 -1.77,1.64 -2.15,3.25 -2.09,5.51 q 0.01,0.52 -0.5,0.44 -2.52,-0.37 -4.82,0.57 -0.16,0.07 -0.22,0.23 -0.04,0.14 -0.04,0.31 0,0.14 -0.09,0.03 -0.23,-0.28 -0.47,-0.11 a 0.3,0.3 0 0 0 0,0.5 q 0.36,0.25 0.73,0.34 a 0.52,0.52 0 0 1 0.25,0.85 l -0.53,0.59 -6.28,-3.4 c -7.8,-4.16 -13.66,-7.34 -16.6,-15.35 q -1.41,-3.84 -1.38,-13.17 0.05,-14.49 -0.05,-29.35 0.09,-15.33 0.08,-31.23 c -0.01,-9.25 6.29,-14.27 15.12,-9.44 q 28.89,15.79 57.76,31.51 z"
       style="fill:url(#linearGradient139);fill-opacity:1" />
    <g
       id="g1">
      <path
         fill="#8d1132"
         d="m 641.19,368.13 c 1.07333,1.78 1.49333,3.91333 1.26,6.4 -0.85,7.77 -4.12,12.2 -10.73,15.28 L 589.6858,413.71063 589.73,389.78 c 13.44667,-7.68 26.87333,-15.34667 40.28,-23 4.11333,-2.35333 7.51,-1.53333 10.19,2.46 0.22667,0.33333 0.44333,0.33 0.65,-0.01 0.16,-0.24667 0.27333,-0.61333 0.34,-1.1 z"
         id="path110"
         sodipodi:nodetypes="ccccccccc" />
      <path
         fill="#8d1132"
         d="m 569.91,400.28 0.22,24.77495 c -7.26,4.12667 -14.67333,8.14065 -22.24,12.51398 -5.05,2.91 -11.97,7.04104 -17.94,6.42104 L 530.24,421.71 c 0.007,-0.33333 0.16333,-0.56667 0.47,-0.7 1.89,-0.85 3.9,-1.6 5.7,-2.61 10.78,-6.04 21.94667,-12.08 33.5,-18.12 z"
         id="path113"
         sodipodi:nodetypes="cccccccc" />
      <path
         id="path118"
         d="m 642.85,448.72 q -0.06,19.36 -0.11,39.78 c -0.02,10.88 -5.65,17.36 -14.87,22.16 -14.52,7.55 -28.58,15.83 -43.06,23.44 q -19.43,10.19 -38.6,20.86 -10.13,5.63 -22.72,4.04 l 4.65,0.07 q 1.62,0.02 1.61,-1.6 l -0.12,-32.42 0.3,-10.95 q 0.01,-0.48 0.27,-0.89 0.19,-0.31 0.19,-0.63 -0.01,-0.37 -0.13,-0.71 -0.42,-1.2 0.21,-2.25 0.13,-0.22 0.38,-0.26 0.12,-0.02 0.25,-0.07 0.14,-0.05 0.22,-0.17 0.11,-0.19 0.14,-0.39 0.01,-0.02 0.29,-0.36 0.26,-0.3 0.51,-0.19 0.66,0.29 1.09,-0.29 2.51,-3.45 6.6,-4.82 0.56,-0.19 0.42,-0.76 -0.29,-1.21 0.75,-1.45 0.47,-0.11 0.76,-0.5 0.25,-0.33 0.37,-0.7 0.16,-0.47 0.55,-0.75 c 3.26,-2.33 5.51,-3.36 8.23,-5.17 5.85,-3.87 12.28,-7.4 17.46,-9.75 q 7.8,-3.55 11.86,-5.89 6.28,-3.61 12.51,-7.3 c 1.37,-0.82 3.81,-1.88 5.54,-3.25 q 0.27,-0.22 0.49,-0.23 0.15,-0.01 0.29,0.04 0.27,0.09 0.05,0.27 l -0.65,0.53 q -0.22,0.18 -0.02,0.37 l 0.3,0.3 a 0.67,0.67 0 0 0 0.81,0.12 l 11.61,-6.2 a 0.48,0.48 0 0 1 0.71,0.42 q 0,0.41 0.41,0.51 a 0.61,0.61 0 0 0 0.4,-0.06 l 5.11,-2.78 q 0.37,-0.2 0.52,-0.6 l 0.18,-0.5 q 0.18,-0.48 0.65,-0.7 4.8,-2.19 9.48,-4.64 3.24,-1.69 6.99,-2.97 3.74,-1.27 7.12,-2.71 z m 0,0 q -3.38,1.44 -7.12,2.71 -3.75,1.28 -6.99,2.97 -4.68,2.45 -9.48,4.64 -0.47,0.22 -0.65,0.7 l -0.18,0.5 q -0.15,0.4 -0.52,0.6 l -5.11,2.78 a 0.61,0.61 0 0 1 -0.4,0.06 q -0.41,-0.1 -0.41,-0.51 a 0.48,0.48 0 0 0 -0.71,-0.42 l -11.61,6.2 a 0.67,0.67 0 0 1 -0.81,-0.12 l -0.3,-0.3 q -0.2,-0.19 0.02,-0.37 l 0.65,-0.53 q 0.22,-0.18 -0.05,-0.27 -0.14,-0.05 -0.29,-0.04 -0.22,0.01 -0.49,0.23 c -1.73,1.37 -4.17,2.43 -5.54,3.25 q -6.23,3.69 -12.51,7.3 -4.06,2.34 -11.86,5.89 c -5.18,2.35 -11.61,5.88 -17.46,9.75 -2.72,1.81 -4.97,2.84 -8.23,5.17 q -0.39,0.28 -0.55,0.75 -0.12,0.37 -0.37,0.7 -0.29,0.39 -0.76,0.5 -1.04,0.24 -0.75,1.45 0.14,0.57 -0.42,0.76 -4.09,1.37 -6.6,4.82 -0.43,0.58 -1.09,0.29 -0.25,-0.11 -0.51,0.19 -0.28,0.34 -0.29,0.36 -0.03,0.2 -0.14,0.39 -0.08,0.12 -0.22,0.17 -0.13,0.05 -0.25,0.07 -0.25,0.04 -0.38,0.26 -0.63,1.05 -0.21,2.25 0.12,0.34 0.13,0.71 0,0.32 -0.19,0.63 -0.26,0.41 -0.27,0.89 l -0.3,10.95 0.16,-60.14 q 7.89,-2.33 18.77,-8.12 14.33,-7.64 28.51,-15.58 c 16.66,-9.33 33.34,-18.19 49.94,-27.41 8.91,-4.94 15.87,-1.92 15.95,8.64 q 0.1,12.71 -0.11,26.28 z"
         style="fill:url(#linearGradient141);fill-opacity:1" />
    </g>
  </g>
</svg>
